<mxfile host="app.diagrams.net" modified="2023-06-16T05:51:12.015Z" agent="Mozilla/5.0 (Macintosh; Intel Mac OS X 10_15_7) AppleWebKit/537.36 (KHTML, like Gecko) Chrome/113.0.0.0 Safari/537.36" etag="IMfhrKktNcC2OhPMAkYx" version="21.4.0" type="github">
  <diagram name="Seite-1" id="sPTq53FhdtA6N1fQLzGm">
    <mxGraphModel dx="1434" dy="849" grid="1" gridSize="10" guides="1" tooltips="1" connect="1" arrows="1" fold="1" page="1" pageScale="1" pageWidth="827" pageHeight="1169" math="0" shadow="0">
      <root>
        <mxCell id="0" />
        <mxCell id="1" parent="0" />
      </root>
    </mxGraphModel>
  </diagram>
</mxfile>
